<svg width="40" height="40" viewBox="0 0 40 40" fill="none" xmlns="http://www.w3.org/2000/svg">
<path d="M31 0.5C30.6 0.5 30.3 0.5 30 0.5C26.5 0.9 23.3 3 21 6.7C18.4 2.6 14 0 9.7 0C8.8 0 7.9 0.1 7 0.4C4.2 1.1 2 3.2 0.8 6.2C-0.5 9.4 -0.2 13.2 1.4 16C3.7 20 7.5 22.4 11.2 24.8C13.2 26 15.1 27.2 16.8 28.6C17.6 29 18 29.6 18.5 30.2C17.8 30.9 16.5 33.2 16.5 33.2C16 34.2 15.5 36.1 16 37.6C16.2 38.2 16.6 38.7 17.1 39C17.4 39 17.7 39.2 18 39.2C19.3 39.2 20.6 37.9 21.4 36.8C22.8 34.8 23 32.7 22 30.6C23.8 29 25.7 27.4 27.5 26C30.7 23.4 34 20.8 36.6 17.5C37.9 15.9 41.8 10.2 39 5C37.5 2.2 34.5 0.5 31 0.5ZM19.6 34.6C19.3 35.1 19 35.5 18.8 35.7C18.8 35 19.1 34.2 19.3 33.8C19.3 33.7 19.7 33.1 19.9 32.8C20 33.4 19.9 34 19.6 34.6ZM16.4 5.4C17.2 6.1 17.9 6.9 18.5 7.8C18.6 7.9 18.7 8.4 18.9 8.3C19.6 9.6 20.4 10.8 21.3 10.8C21.7 10.8 22.1 10.5 22.4 9.9C24.2 5.9 27.1 3.6 30.6 3.3C30.8 3.2 31 3.2 31.2 3.2C33.9 3.2 36.3 4.6 37.1 7.3C38.2 10.4 36.5 14.2 31.8 18.8C29.8 20.7 27.6 22.5 25.5 24.2C23.8 25.5 22.1 26.9 20.5 28.4C19 26.7 17.1 25.3 15.6 24.3C14.7 23.6 13.7 23 12.7 22.4C7.6 19.3 1.9 15.7 2.8 9.1C3.3 5.3 6 2.8 9.8 2.8C10 2.8 10.3 2.8 10.6 2.9C12.6 3.1 14.7 4 16.4 5.4Z" fill="white"/>
</svg>
