<svg xmlns="http://www.w3.org/2000/svg" width="36" height="36" viewBox="0 0 36 36" fill="none">
  <path d="M35.1 26.6L30.6 22.1C29.4 20.9 27.3 20.9 26.1 22.1L25.4 22.8 34.3 31.8 35.1 31C36.3 29.8 36.3 27.8 35.1 26.6Z" fill="black"/>
  <path d="M23.8 24.3C22.9 25 21.6 25 20.7 24.1L11.9 15.3C11 14.4 11 13.1 11.7 12.1L2.8 3.2C-1.1 7.7-0.9 14.4 3.3 18.7L17.3 32.7C21.4 36.7 28 37.3 32.8 33.2L23.8 24.3Z" fill="black"/>
  <path d="M13.9 5.4L9.4 1C8.2-0.3 6.1-0.3 4.9 0.9L4.2 1.6 13.1 10.6 13.9 9.8C15.1 8.6 15.1 6.6 13.9 5.4Z" fill="black"/>
</svg>
