<svg xmlns="http://www.w3.org/2000/svg" width="36" height="36" viewBox="0 0 36 36" fill="none">
  <path d="M26.4 6.4H9.6C7.8 6.4 6.4 7.8 6.4 9.6V26.4C6.4 28.2 7.8 29.6 9.6 29.6H26.4C28.2 29.6 29.6 28.2 29.6 26.4V9.6C29.6 7.8 28.2 6.4 26.4 6.4ZM18 25.4C13.9 25.4 10.6 22.1 10.6 18 10.6 13.9 13.9 10.6 18 10.6 22.1 10.6 25.4 13.9 25.4 18 25.4 22.1 22.1 25.4 18 25.4ZM25.4 12.7C24.2 12.7 23.3 11.8 23.3 10.6 23.3 9.5 24.2 8.5 25.4 8.5 26.5 8.5 27.5 9.5 27.5 10.6 27.5 11.8 26.5 12.7 25.4 12.7ZM18 12.7C15.1 12.7 12.7 15.1 12.7 18 12.7 20.9 15.1 23.3 18 23.3 20.9 23.3 23.3 20.9 23.3 18 23.3 15.1 20.9 12.7 18 12.7ZM30.7 0H5.3C2.4 0 0 2.4 0 5.3V30.7C0 33.6 2.4 36 5.3 36H30.7C33.6 36 36 33.6 36 30.7V5.3C36 2.4 33.6 0 30.7 0ZM31.7 26.4C31.7 29.3 29.3 31.7 26.4 31.7H9.6C6.7 31.7 4.3 29.3 4.3 26.4V9.6C4.3 6.7 6.7 4.3 9.6 4.3H26.4C29.3 4.3 31.7 6.7 31.7 9.6V26.4Z" fill="black"/>
</svg>
